<svg xmlns="http://www.w3.org/2000/svg" xmlns:xlink="http://www.w3.org/1999/xlink" width="40" zoomAndPan="magnify" viewBox="0 0 30 30.000001" height="40" preserveAspectRatio="xMidYMid meet" version="1.2"><defs><clipPath id="bd369b8bf5"><path d="M 1.828125 3 L 25 3 L 25 10 L 1.828125 10 Z M 1.828125 3 "/></clipPath><clipPath id="1cd9e2362e"><path d="M 5 1.34375 L 10 1.34375 L 10 7 L 5 7 Z M 5 1.34375 "/></clipPath><clipPath id="30695f1697"><path d="M 15 1.34375 L 19 1.34375 L 19 7 L 15 7 Z M 15 1.34375 "/></clipPath><clipPath id="696fc01ad4"><path d="M 14 13 L 27.957031 13 L 27.957031 27 L 14 27 Z M 14 13 "/></clipPath><clipPath id="a2b9333ee4"><path d="M 1.828125 9 L 25 9 L 25 25 L 1.828125 25 Z M 1.828125 9 "/></clipPath><clipPath id="d626473435"><path d="M 1.828125 2 L 13 2 L 13 25 L 1.828125 25 Z M 1.828125 2 "/></clipPath><clipPath id="31b05bcd67"><path d="M 1.828125 7 L 25 7 L 25 10 L 1.828125 10 Z M 1.828125 7 "/></clipPath><clipPath id="aad56d515b"><path d="M 5 1.34375 L 10 1.34375 L 10 7 L 5 7 Z M 5 1.34375 "/></clipPath><clipPath id="dba6a34296"><path d="M 14 1.34375 L 20 1.34375 L 20 7 L 14 7 Z M 14 1.34375 "/></clipPath><clipPath id="a322efbb35"><path d="M 13 12 L 27.957031 12 L 27.957031 27.472656 L 13 27.472656 Z M 13 12 "/></clipPath></defs><g id="d07590666d"><g clip-rule="nonzero" clip-path="url(#bd369b8bf5)"><path style=" stroke:none;fill-rule:nonzero;fill:#bdcef4;fill-opacity:1;" d="M 24.691406 5.425781 L 24.691406 9.507812 L 1.828125 9.507812 L 1.828125 5.425781 C 1.828125 4.511719 2.546875 3.792969 3.460938 3.792969 L 23.054688 3.792969 C 23.972656 3.792969 24.691406 4.511719 24.691406 5.425781 Z M 24.691406 5.425781 "/></g><g clip-rule="nonzero" clip-path="url(#1cd9e2362e)"><path style=" stroke:none;fill-rule:nonzero;fill:#bdcef4;fill-opacity:1;" d="M 8.359375 6.242188 L 6.726562 6.242188 C 6.273438 6.242188 5.910156 5.875 5.910156 5.425781 L 5.910156 2.160156 C 5.910156 1.707031 6.273438 1.34375 6.726562 1.34375 L 8.359375 1.34375 C 8.808594 1.34375 9.175781 1.707031 9.175781 2.160156 L 9.175781 5.425781 C 9.175781 5.875 8.808594 6.242188 8.359375 6.242188 Z M 8.359375 6.242188 "/></g><g clip-rule="nonzero" clip-path="url(#30695f1697)"><path style=" stroke:none;fill-rule:nonzero;fill:#bdcef4;fill-opacity:1;" d="M 18.15625 6.242188 L 16.523438 6.242188 C 16.074219 6.242188 15.707031 5.875 15.707031 5.425781 L 15.707031 2.160156 C 15.707031 1.707031 16.074219 1.34375 16.523438 1.34375 L 18.15625 1.34375 C 18.609375 1.34375 18.972656 1.707031 18.972656 2.160156 L 18.972656 5.425781 C 18.972656 5.875 18.609375 6.242188 18.15625 6.242188 Z M 18.15625 6.242188 "/></g><g clip-rule="nonzero" clip-path="url(#696fc01ad4)"><path style=" stroke:none;fill-rule:nonzero;fill:#bdcef4;fill-opacity:1;" d="M 27.140625 20.121094 C 27.140625 20.550781 27.097656 20.976562 27.011719 21.398438 C 26.929688 21.816406 26.804688 22.226562 26.640625 22.621094 C 26.476562 23.019531 26.277344 23.394531 26.039062 23.753906 C 25.800781 24.109375 25.527344 24.4375 25.226562 24.742188 C 24.921875 25.046875 24.59375 25.316406 24.234375 25.554688 C 23.878906 25.792969 23.503906 25.992188 23.105469 26.15625 C 22.710938 26.320312 22.300781 26.445312 21.882812 26.53125 C 21.460938 26.613281 21.035156 26.65625 20.605469 26.65625 C 20.179688 26.65625 19.753906 26.613281 19.332031 26.53125 C 18.910156 26.445312 18.503906 26.320312 18.105469 26.15625 C 17.710938 25.992188 17.335938 25.792969 16.976562 25.554688 C 16.621094 25.316406 16.292969 25.046875 15.988281 24.742188 C 15.683594 24.4375 15.414062 24.109375 15.175781 23.753906 C 14.9375 23.394531 14.734375 23.019531 14.570312 22.621094 C 14.40625 22.226562 14.285156 21.816406 14.199219 21.398438 C 14.117188 20.976562 14.074219 20.550781 14.074219 20.121094 C 14.074219 19.695312 14.117188 19.269531 14.199219 18.847656 C 14.285156 18.429688 14.40625 18.019531 14.570312 17.625 C 14.734375 17.226562 14.9375 16.851562 15.175781 16.492188 C 15.414062 16.136719 15.683594 15.808594 15.988281 15.503906 C 16.292969 15.199219 16.621094 14.929688 16.976562 14.691406 C 17.335938 14.453125 17.710938 14.253906 18.105469 14.089844 C 18.503906 13.921875 18.910156 13.800781 19.332031 13.714844 C 19.753906 13.632812 20.179688 13.589844 20.605469 13.589844 C 21.035156 13.589844 21.460938 13.632812 21.882812 13.714844 C 22.300781 13.800781 22.710938 13.921875 23.105469 14.089844 C 23.503906 14.253906 23.878906 14.453125 24.234375 14.691406 C 24.59375 14.929688 24.921875 15.199219 25.226562 15.503906 C 25.527344 15.808594 25.800781 16.136719 26.039062 16.492188 C 26.277344 16.851562 26.476562 17.226562 26.640625 17.625 C 26.804688 18.019531 26.929688 18.429688 27.011719 18.847656 C 27.097656 19.269531 27.140625 19.695312 27.140625 20.121094 Z M 27.140625 20.121094 "/></g><g clip-rule="nonzero" clip-path="url(#a2b9333ee4)"><path style=" stroke:none;fill-rule:nonzero;fill:#eceff1;fill-opacity:1;" d="M 24.691406 11.019531 L 24.691406 9.507812 L 1.828125 9.507812 L 1.828125 22.574219 C 1.828125 23.488281 2.546875 24.207031 3.460938 24.207031 L 11.703125 24.207031 L 12.363281 23.636719 C 11.898438 22.554688 11.625 21.375 11.625 20.121094 C 11.625 15.160156 15.644531 11.140625 20.605469 11.140625 C 21.769531 11.140625 22.875 11.375 23.898438 11.78125 Z M 24.691406 11.019531 "/></g><path style=" stroke:none;fill-rule:nonzero;fill:#000000;fill-opacity:1;" d="M 15.707031 4.609375 L 9.175781 4.609375 C 8.726562 4.609375 8.359375 4.242188 8.359375 3.792969 C 8.359375 3.339844 8.726562 2.976562 9.175781 2.976562 L 15.707031 2.976562 C 16.160156 2.976562 16.523438 3.339844 16.523438 3.792969 C 16.523438 4.242188 16.160156 4.609375 15.707031 4.609375 Z M 15.707031 4.609375 "/><g clip-rule="nonzero" clip-path="url(#d626473435)"><path style=" stroke:none;fill-rule:nonzero;fill:#000000;fill-opacity:1;" d="M 12.035156 24.207031 L 3.460938 24.207031 C 2.542969 24.207031 1.828125 23.488281 1.828125 22.574219 L 1.828125 4.609375 C 1.828125 3.691406 2.542969 2.976562 3.460938 2.976562 L 5.910156 2.976562 C 6.359375 2.976562 6.726562 3.339844 6.726562 3.792969 C 6.726562 4.242188 6.359375 4.609375 5.910156 4.609375 L 3.460938 4.609375 L 3.460938 22.574219 L 12.035156 22.574219 C 12.484375 22.574219 12.851562 22.9375 12.851562 23.390625 C 12.851562 23.839844 12.484375 24.207031 12.035156 24.207031 Z M 12.035156 24.207031 "/></g><path style=" stroke:none;fill-rule:nonzero;fill:#000000;fill-opacity:1;" d="M 23.871094 12.367188 C 23.421875 12.367188 23.054688 12 23.054688 11.550781 L 23.054688 4.609375 L 18.972656 4.609375 C 18.523438 4.609375 18.15625 4.242188 18.15625 3.792969 C 18.15625 3.339844 18.523438 2.976562 18.972656 2.976562 L 23.054688 2.976562 C 23.972656 2.976562 24.691406 3.691406 24.691406 4.609375 L 24.691406 11.550781 C 24.691406 12 24.324219 12.367188 23.871094 12.367188 Z M 23.871094 12.367188 "/><g clip-rule="nonzero" clip-path="url(#31b05bcd67)"><path style=" stroke:none;fill-rule:nonzero;fill:#000000;fill-opacity:1;" d="M 23.871094 9.507812 L 2.644531 9.507812 C 2.191406 9.507812 1.828125 9.140625 1.828125 8.691406 C 1.828125 8.242188 2.191406 7.875 2.644531 7.875 L 23.871094 7.875 C 24.324219 7.875 24.691406 8.242188 24.691406 8.691406 C 24.691406 9.140625 24.324219 9.507812 23.871094 9.507812 Z M 23.871094 9.507812 "/></g><g clip-rule="nonzero" clip-path="url(#aad56d515b)"><path style=" stroke:none;fill-rule:nonzero;fill:#000000;fill-opacity:1;" d="M 9.175781 6.242188 L 5.910156 6.242188 C 5.457031 6.242188 5.09375 5.875 5.09375 5.425781 L 5.09375 2.160156 C 5.09375 1.707031 5.457031 1.34375 5.910156 1.34375 L 9.175781 1.34375 C 9.625 1.34375 9.992188 1.707031 9.992188 2.160156 L 9.992188 5.425781 C 9.992188 5.875 9.625 6.242188 9.175781 6.242188 Z M 6.726562 4.609375 L 8.359375 4.609375 L 8.359375 2.976562 L 6.726562 2.976562 Z M 6.726562 4.609375 "/></g><g clip-rule="nonzero" clip-path="url(#dba6a34296)"><path style=" stroke:none;fill-rule:nonzero;fill:#000000;fill-opacity:1;" d="M 18.972656 6.242188 L 15.707031 6.242188 C 15.257812 6.242188 14.890625 5.875 14.890625 5.425781 L 14.890625 2.160156 C 14.890625 1.707031 15.257812 1.34375 15.707031 1.34375 L 18.972656 1.34375 C 19.425781 1.34375 19.789062 1.707031 19.789062 2.160156 L 19.789062 5.425781 C 19.789062 5.875 19.425781 6.242188 18.972656 6.242188 Z M 16.523438 4.609375 L 18.15625 4.609375 L 18.15625 2.976562 L 16.523438 2.976562 Z M 16.523438 4.609375 "/></g><g clip-rule="nonzero" clip-path="url(#a322efbb35)"><path style=" stroke:none;fill-rule:nonzero;fill:#000000;fill-opacity:1;" d="M 20.605469 27.472656 C 16.554688 27.472656 13.257812 24.175781 13.257812 20.121094 C 13.257812 16.070312 16.554688 12.773438 20.605469 12.773438 C 24.660156 12.773438 27.957031 16.070312 27.957031 20.121094 C 27.957031 24.175781 24.660156 27.472656 20.605469 27.472656 Z M 20.605469 14.40625 C 17.453125 14.40625 14.890625 16.972656 14.890625 20.121094 C 14.890625 23.273438 17.453125 25.839844 20.605469 25.839844 C 23.757812 25.839844 26.324219 23.273438 26.324219 20.121094 C 26.324219 16.972656 23.757812 14.40625 20.605469 14.40625 Z M 20.605469 14.40625 "/></g><path style=" stroke:none;fill-rule:nonzero;fill:#000000;fill-opacity:1;" d="M 23.871094 20.941406 L 20.605469 20.941406 C 20.15625 20.941406 19.789062 20.574219 19.789062 20.121094 L 19.789062 16.855469 C 19.789062 16.40625 20.15625 16.039062 20.605469 16.039062 C 21.058594 16.039062 21.421875 16.40625 21.421875 16.855469 L 21.421875 19.304688 L 23.871094 19.304688 C 24.324219 19.304688 24.691406 19.671875 24.691406 20.121094 C 24.691406 20.574219 24.324219 20.941406 23.871094 20.941406 Z M 23.871094 20.941406 "/></g></svg>